<svg width="339" height="618" viewBox="0 0 339 618" fill="none" xmlns="http://www.w3.org/2000/svg">
<path fill-rule="evenodd" clip-rule="evenodd" d="M339 3.54372C338.529 3.42964 338.056 3.31866 337.581 3.21081C296.197 -6.19989 253.794 6.8557 212.939 19.4349C209.759 20.4138 206.589 21.3898 203.43 22.3522C192.733 25.6102 181.341 28.3602 169.815 31.1427C129.17 40.9545 86.851 51.1703 67.4422 85.4923C53.161 110.747 61.6324 139.793 70.2622 169.382C77.3874 193.813 84.6207 218.614 79.2452 241.958C73.7064 266.01 56.7161 285.616 39.8844 305.038C20.4948 327.412 1.3157 349.543 0.0955575 377.95C-2.09835 429.028 33.9135 474.229 65.9053 514.384C66.4247 515.036 66.943 515.687 67.4601 516.336C99.8376 556.989 137.707 597.433 187.293 612.998C215.184 621.753 243.862 615.507 272.848 609.195C294.322 604.518 315.965 599.805 337.581 601.127C338.054 601.156 338.527 601.188 339 601.225V3.54372Z" fill="#8C66DC"/>
</svg>
