<?xml version="1.0" encoding="utf-8"?>
<!-- Generator: Adobe Illustrator 19.0.0, SVG Export Plug-In . SVG Version: 6.00 Build 0)  -->
<svg version="1.1" id="Layer_1" xmlns="http://www.w3.org/2000/svg" xmlns:xlink="http://www.w3.org/1999/xlink" x="0px" y="0px"
	 viewBox="0 0 612 792" style="enable-background:new 0 0 612 792;" xml:space="preserve">
<style type="text/css">
	.st0{fill:#ECF0F2;}
	.st1{fill:#F5F7F7;}
	.st2{fill:#E2E2E2;}
	.st3{fill:#C4E0EC;}
	.st4{fill:#E8EAE9;}
	.st5{fill:#889DAD;}
	.st6{fill:#70818C;}
	.st7{fill:#A6B8C4;}
	.st8{fill:#12426D;}
	.st9{fill:#3A5769;}
	.st10{fill:#4E6F80;}
	.st11{fill:#314C5A;}
	.st12{fill:#86B5E0;}
	.st13{fill:#EE6B81;}
	.st14{fill:#AFDAF4;}
	.st15{fill:#D2536E;}
	.st16{fill:#F48CA6;}
	.st17{fill:#D2EDFB;}
	.st18{fill:#709EC1;}
	.st19{fill:#6D9DBF;}
	.st20{fill:#5884A1;}
	.st21{fill:#FFD56C;}
	.st22{fill:#FFE5AB;}
	.st23{fill:#E2B34A;}
	.st24{fill:#FFE19F;}
	.st25{fill:#F6DEC6;}
	.st26{fill:#78A567;}
	.st27{fill:#C2E0B0;}
	.st28{fill:#60844F;}
	.st29{fill:#90C67D;}
	.st30{fill:#ABD69A;}
	.st31{fill:#FDD9AF;}
	.st32{fill:#FBBB9A;}
	.st33{fill:#FFECD8;}
</style>
<g id="Planet_3">
	<g id="XMLID_180_">
		<path id="XMLID_308_" class="st0" d="M239.1,453.6l-3-20.1c0,0-11.2-19.4-12-20.2c-0.8-0.9-19.4-13.8-19.4-13.8l-9.6-4.7h-15.7
			l-16.4,2l-18,10.9l-10.1,11.9l-8.3,18.1l-1.8,14.4l3.5,19.7l10.7,18l14.5,11.9l19,7.6l21-1.2l16.9-6.4l14.1-11.4l11.1-18.5
			L239.1,453.6z"/>
	</g>
	<g id="XMLID_179_">
		<path id="XMLID_306_" class="st1" d="M200.6,394.9c0,0-64.2,30.7-36.4,110.9l-14.3-6.1L134,483.1l-9.2-21.2l1.8-24.3l6.2-17.1
			l12.1-12.8l22.1-10.9l23.6-3.4L200.6,394.9z"/>
	</g>
	<g id="XMLID_167_">
		<polygon id="XMLID_304_" class="st2" points="134,483.1 140.5,482 143.8,475.6 143.8,457.7 144.9,448 152.9,437.4 154.8,429.4 
			149.3,419.7 137.5,416.4 126.6,437.6 124.8,451.9 126.2,464.5 		"/>
	</g>
	<g id="XMLID_166_">
		<polygon id="XMLID_302_" class="st2" points="195.7,418.9 185.8,425.2 182.7,433.5 189.2,443.4 189.9,450.1 189.2,457.7 
			189.2,461.9 199.4,461.3 209.9,450.1 212.8,437.4 208.5,425.2 		"/>
	</g>
	<polygon id="XMLID_165_" class="st2" points="167,396.7 179.4,403.4 192.1,403.4 204.6,399.4 195.1,396.8 185.8,394.9 	"/>
	<g id="XMLID_164_">
		<polygon id="XMLID_299_" class="st2" points="171.6,467.5 161.3,471.6 158.2,475.7 163.3,489.4 168.8,492.1 174,489.7 178,475.7 
			178,468.5 		"/>
	</g>
	<g id="XMLID_345_">
		<g id="XMLID_163_">
			<path id="XMLID_250_" class="st3" d="M181.9,512c-33.1,0-60-26.9-60-60s26.9-60,60-60s60,26.9,60,60S215,512,181.9,512z
				 M181.9,397.6c-30,0-54.4,24.4-54.4,54.4s24.4,54.4,54.4,54.4s54.4-24.4,54.4-54.4S211.9,397.6,181.9,397.6z"/>
		</g>
		<g id="XMLID_162_">
			<path id="XMLID_249_" class="st3" d="M134.8,487.2c-1.4,0-2.6-1-2.8-2.4c-0.2-1.5,0.9-3,2.4-3.2c7-1,7.5-6.8,6.8-18.9
				c-0.2-3.7-0.4-7.5-0.1-11c0.6-6.5,4.1-10.2,6.9-13.1c3.2-3.3,5.1-5.3,3.4-10.5c-3.3-10-13.3-9.4-13.7-9.3c-1.6,0.1-2.9-1-3.1-2.6
				s1-2.9,2.6-3.1c5.1-0.4,15.8,1.8,19.6,13.2c2.7,8.4-1.2,12.5-4.7,16.2c-2.5,2.7-5,5.2-5.4,9.8c-0.3,3-0.1,6.7,0.1,10.1
				c0.6,10.2,1.2,23-11.7,24.8C135.1,487.2,135,487.2,134.8,487.2z"/>
		</g>
		<g id="XMLID_161_">
			<path id="XMLID_246_" class="st3" d="M195.1,464.8c-1.1,0-2.2-0.2-3.2-0.7c-5.6-2.6-5.8-11.1-5.8-12.1l0-1.7l1-0.5
				c0.6-1,1-4.7-4.3-12.3c-3.5-4.9-3.1-8.8-2.2-11.2c2.7-7.1,12.7-9.7,13.9-9.9l0.3-0.1l0.4,0c9.1,0.2,16.3,5.2,19.2,13.6
				c3.7,10.4,0.1,22.8-8.7,30.1C201.6,463.1,198.1,464.8,195.1,464.8z M191.7,452.9c0.2,2.3,1,5.4,2.5,6.1c1.4,0.7,4.3-0.6,7.7-3.4
				c7.8-6.5,9.4-16.9,7-23.8c-1.2-3.5-4.7-9.5-13.6-9.8c-2.4,0.7-8.3,2.9-9.6,6.3c-0.2,0.6-0.9,2.5,1.5,6
				C194.9,444.9,193.3,450.5,191.7,452.9z"/>
		</g>
		<g id="XMLID_160_">
			<path id="XMLID_245_" class="st3" d="M187.4,406.2c-13.4,0-21.8-6.9-22.2-7.3c-1.2-1-1.3-2.8-0.3-4c1-1.2,2.8-1.3,4-0.3
				c0.6,0.5,14.2,11.6,34.7,2.3c1.4-0.6,3.1,0,3.7,1.4s0,3.1-1.4,3.8C199,405.1,192.8,406.2,187.4,406.2z"/>
		</g>
		<g id="XMLID_159_">
			<path id="XMLID_242_" class="st3" d="M168.5,494.9c-3.9,0-7.2-3.5-11.5-12c-2.7-5.3-1.7-9-0.4-11.1c3.6-6,13.3-6.7,15.3-6.8
				c5-1,7.5,0.7,8.7,2.2c2.7,3.5,1.9,9.6-2.5,18.4C175.9,490.2,172.9,494.9,168.5,494.9C168.5,494.9,168.5,494.9,168.5,494.9z
				 M172.4,470.7c-2.2,0.1-9,1-10.9,4.1c-0.8,1.3-0.6,3.3,0.6,5.7c4.3,8.6,6.2,8.8,6.4,8.8c0,0,1.5,0,4.6-6.2
				c3.9-7.9,3.7-11.5,3.1-12.3c-0.3-0.3-1.3-0.6-3.3-0.1l-0.3,0.1L172.4,470.7z"/>
		</g>
	</g>
</g>
<g id="Planet_2">
	<polygon id="XMLID_176_" class="st0" points="518.2,659.6 348.1,659.6 350.3,640.5 358.3,619.2 379.9,593.3 392.7,584.8 413,577 
		439.5,574.6 457.2,578 479.1,588.1 494.9,601.1 506.8,617.1 514.3,633.9 	"/>
	<polygon id="XMLID_175_" class="st2" points="494.9,601.1 489.3,611.5 489.3,626.2 494.9,646.2 496.6,658.9 518.2,658.9 
		514.3,633.9 506.8,617.1 	"/>
	<polygon id="XMLID_174_" class="st1" points="392.7,584.8 372.7,599.8 358.3,619.2 349.8,644.9 348.1,659.6 461.3,659.6 458.5,645 
		450.4,633.6 436.1,624.7 414.1,617.1 395.5,611.5 387,603.1 386.6,599.8 	"/>
	<path id="XMLID_173_" class="st0" d="M372.7,599.8c0,0-15.3,27.8,10.1,36.5c25.4,8.7,34.1,23.5,34.1,23.5h-68.8l2.2-19.3l8-21.3
		L372.7,599.8z"/>
	<path id="XMLID_172_" class="st1" d="M439.5,574.6c0,0,24,6.8,25.1,26.6c1.2,19.7,17.2,45.6,30.2,45.1l-5.6-20v-14.7l5.6-10.4
		l-15.8-13.1l-21.9-10L439.5,574.6z"/>
	<path id="XMLID_171_" class="st2" d="M413,577c0,0-20.9,13.8-11.6,22.8c9.2,9,22.6,20.2,22.6,20.2l-19.2-5.4l-9.2-3.1l-8.4-8.5
		l2.9-11.4l5.5-8.2L413,577z"/>
	<g id="XMLID_341_">
		<g id="XMLID_158_">
			<path id="XMLID_227_" class="st3" d="M518.2,662c-1.3,0-2.4-1.1-2.4-2.4c0-45.6-37.1-82.6-82.6-82.6s-82.6,37.1-82.6,82.6
				c0,1.3-1.1,2.4-2.4,2.4s-2.4-1.1-2.4-2.4c0-48.2,39.2-87.5,87.5-87.5s87.5,39.2,87.5,87.5C520.6,660.9,519.5,662,518.2,662z"/>
		</g>
		<g id="XMLID_157_">
			<path id="XMLID_226_" class="st3" d="M461.3,662C461.3,662,461.3,662,461.3,662c-1.3,0-2.4-1.1-2.4-2.4
				c0.2-26.7-24.3-35-56.4-43.1c-10.3-2.6-16.3-7-17.9-13.2c-2.7-10.4,8.7-21.2,9.1-21.7c1-0.9,2.5-0.9,3.4,0.1
				c0.9,1,0.9,2.5-0.1,3.4c-2.7,2.6-9.4,10.6-7.8,17c1.1,4.3,6,7.6,14.4,9.7c32.9,8.3,60.2,17.6,60,47.8
				C463.7,660.9,462.6,662,461.3,662z"/>
		</g>
		<g id="XMLID_156_">
			<path id="XMLID_225_" class="st3" d="M496.7,662.1c-1.3,0-2.4-1-2.4-2.3c0-0.1-0.5-14.3-7.3-33.1c-2.7-7.6-2.7-13.8-0.1-18.7
				c3.2-5.8,9-7.2,9.3-7.3c1.3-0.3,2.6,0.5,2.9,1.8c0.3,1.3-0.5,2.6-1.8,2.9c-0.2,0-4.1,1-6.1,4.9c-1.9,3.6-1.8,8.5,0.4,14.7
				c7,19.6,7.5,34,7.6,34.6C499.1,661,498.1,662.1,496.7,662.1C496.7,662.1,496.7,662.1,496.7,662.1z"/>
		</g>
	</g>
</g>
<g id="Planet_1">
	<g id="XMLID_177_">
		<polygon class="st0" points="479.1,464.7 461.3,452.4 444.2,450.4 423.9,453.3 411.9,462.6 400.9,476.7 395.5,495.2 397.3,512.4 
			402.6,524.5 415.2,538.2 437.3,547.3 453.4,547.8 475.9,536.1 487.3,521.7 492.9,499.1 489.3,480.6 		"/>
	</g>
	<g id="XMLID_170_">
		<polygon class="st1" points="467.2,510.3 454.1,512.4 444.2,524.3 444.8,535.3 455.7,544 469.1,541.2 478.3,529.8 478.3,518.4 		
			"/>
	</g>
	<g id="XMLID_169_">
		<polygon class="st1" points="456.4,466.9 453.4,478.7 461.3,489 470.5,488.4 475.9,482.1 475.9,476.7 471.8,468.9 464.6,464.7 		
			"/>
	</g>
	<g id="XMLID_168_">
		<path class="st4" d="M423.9,453.3c0,0-33.2,62,31.8,90.7l-12.3,3.8l-21-6.6l-19.8-16.7l-7.2-18.7l2.6-22.3l7.9-14.5L423.9,453.3z"
			/>
	</g>
	<g id="XMLID_337_">
		<g id="XMLID_155_">
			<path id="XMLID_235_" class="st3" d="M444.2,550.2c-28.2,0-51.1-22.9-51.1-51.1S416,448,444.2,448s51.1,22.9,51.1,51.1
				S472.4,550.2,444.2,550.2z M444.2,452.8c-25.5,0-46.3,20.8-46.3,46.3s20.8,46.3,46.3,46.3s46.3-20.8,46.3-46.3
				S469.7,452.8,444.2,452.8z"/>
		</g>
		<g id="XMLID_154_">
			<path id="XMLID_232_" class="st3" d="M466.6,491.4c-1.3,0-2.7-0.2-4.1-0.7c-3.5-1.1-6.6-3.6-8.8-6.9c-4.5-7-3.3-15.9,2.7-19.7
				c3-1.9,6.6-2.3,10.3-1.1c3.5,1.1,6.6,3.6,8.8,6.9l0,0c2.1,3.3,3.1,7.2,2.6,10.8c-0.5,3.8-2.4,7-5.3,8.9
				C471,490.8,468.8,491.4,466.6,491.4z M462.7,467.1c-1.3,0-2.6,0.3-3.6,1c-3.8,2.4-4.3,8.3-1.2,13.1c1.5,2.4,3.7,4.1,6.2,4.9
				c2.3,0.7,4.5,0.5,6.2-0.6c1.7-1.1,2.9-3,3.2-5.4c0.3-2.5-0.4-5.3-1.9-7.7l0,0c-1.5-2.4-3.7-4.1-6.2-4.9
				C464.4,467.2,463.5,467.1,462.7,467.1z"/>
		</g>
		<g id="XMLID_153_">
			<path id="XMLID_229_" class="st3" d="M459.1,546.4c-0.7,0-1.4,0-2.2-0.1c-5.3-0.6-9.9-3.1-12.8-7.3c-5.9-8.4-3.1-20.7,6.4-27.4
				c4.5-3.2,9.9-4.7,15.1-4.1c5.3,0.6,9.9,3.1,12.8,7.3s3.8,9.3,2.5,14.5c-1.2,5.1-4.4,9.7-9,12.9
				C468.1,545,463.6,546.4,459.1,546.4z M463.5,512.3c-3.5,0-7.1,1.2-10.2,3.3c-7.3,5.1-9.6,14.4-5.2,20.6c2.1,3,5.4,4.8,9.3,5.2
				c4.1,0.4,8.3-0.7,11.8-3.3l0,0c3.6-2.5,6.1-6.1,7-10.1c0.9-3.8,0.3-7.6-1.8-10.6s-5.4-4.8-9.3-5.2
				C464.6,512.3,464,512.3,463.5,512.3z"/>
		</g>
	</g>
</g>
<g id="Background_Star">
	<g id="XMLID_178_">
		<polygon class="st0" points="494.9,414.6 489.3,417.7 489.3,422.1 494.9,425.9 500.5,422.9 500.5,420.2 		"/>
	</g>
	<g id="XMLID_152_">
		<path id="XMLID_239_" class="st3" d="M494.9,428.3c-4.4,0-8-3.6-8-8s3.6-8,8-8s8,3.6,8,8S499.3,428.3,494.9,428.3z M494.9,417
			c-1.8,0-3.2,1.4-3.2,3.2c0,1.8,1.4,3.2,3.2,3.2c1.8,0,3.2-1.4,3.2-3.2C498.1,418.5,496.7,417,494.9,417z"/>
	</g>
</g>
<g id="Smoke">
	<polygon id="XMLID_143_" class="st5" points="186.7,505.6 181.3,512.2 177.2,519.1 174,527.9 178,538.6 169.1,547.8 162.8,563.2 
		166.1,578.8 158,586.3 152.5,593.3 152.5,603.1 147.1,604.8 138.1,610.9 134.6,617.1 134.9,629.5 119.8,631.4 106.4,639.5 
		99.4,650.4 97,659.7 314,659.7 312.4,649.8 304.3,637.9 296,633.2 289.6,636.4 285.9,614.2 275.9,591.3 256,577.3 241.7,574.6 
		221.2,576.6 208.6,580.3 206.4,578.5 208.4,574.6 212.3,554.9 211.6,534.3 205.5,520.4 193.4,508.4 187.8,504.9 	"/>
	<path id="XMLID_132_" class="st6" d="M178,538.6c0,0,6.7-25.6,29.6-13.3l-4.3-7.7l-15.5-12.6l-6.1,3.7l-7.8,10.5l1,11.2L178,538.6z
		"/>
	<path id="XMLID_131_" class="st6" d="M208.6,580.3c0,0,29-12.3,47.4,12.5c18.4,24.8,13.9,29.6,13.9,29.6h11.5l5.3-3.1l-6.6-19.4
		l-10.2-16.4l-18.9-7.6l-14.8-1.2L208.6,580.3z"/>
	<path id="XMLID_130_" class="st6" d="M272.3,631.4c0,0,4.5,16.5,17.3,5l-2.9-17.2l-8.9,5.7L272.3,631.4z"/>
	<path id="XMLID_129_" class="st6" d="M289.6,636.4c0,0,9.1,17.3-2.9,23.3l27.3-1.4l-1.6-8.6l-8-11.9l-8.3-4.7L289.6,636.4z"/>
	<path id="XMLID_128_" class="st6" d="M236.2,631.4c0,0,23.2,26.6,44.8,8.4l-3.2-8.4l-5.3-1.6l-7.5,5.9l-11.7-1.2l-17.1-7.1V631.4z"
		/>
	<path id="XMLID_127_" class="st6" d="M258.6,612.7c0,0-5.2,12.8,10,20.1l7.1-7.2l-5.8-3.2L258.6,612.7z"/>
	<path id="XMLID_126_" class="st7" d="M199.3,659.7c0,0-15.8-19,6.2-36.4c0,0-1.6-18.5,13.4-24.8l-5.1-0.8l-8.7,5.5l-3.2,7.8
		l0.1,6.2l-14.3,3.1l-7.4,6.4l-4.1,6.2c0,0-5.7,13.6-2.3,27H199.3z"/>
	<path id="XMLID_125_" class="st7" d="M137.2,629.8c0,0-25.7,14.5-12.7,29.9H97l2.4-9.3l7-11l9.2-6.3l12.9-2.9L137.2,629.8z"/>
	<path id="XMLID_124_" class="st7" d="M137.2,631.4c0,0,5.3-22.1,27.3-14.3l-13.6-13.5l-6.6,2.6l-6.1,4.7l-4.9,6.6L137.2,631.4z"/>
	<path id="XMLID_123_" class="st7" d="M178,538.6c0,0-19.3,28.1,4.2,53.9c0,0-28.7-5.6-17.8,24.6l-9.2-9.1l-3.7-10.3l4.4-8.7
		l11.1-8.4l-4.2-12.2l2.2-13.4l4-7.1L178,538.6z"/>
	<g id="XMLID_22_">
		<path id="XMLID_197_" class="st8" d="M167.3,621.7c-0.5,0-1-0.1-1.4-0.5c-12.1-8.6-17.7-17-16.7-25c1.1-8.8,10-14.3,14.6-16.5
			c-10.7-20.6,5.7-37.1,11.1-41.8c-3.2-6.9-3.8-13.4-1.9-19.4c3.4-10.5,13.3-15.5,13.7-15.7c1.2-0.6,2.7-0.1,3.4,1.1
			c0.6,1.2,0.1,2.7-1.1,3.4c-0.1,0-8.5,4.4-11.2,12.8c-1.7,5.2-0.8,11.1,2.5,17.4l1,1.9l-1.8,1.3c-1,0.7-23.4,17.3-10,39l1.6,2.6
			l-2.9,1.1c-0.1,0-12.9,5-14.1,13.7c-0.8,5.9,4.3,13,14.6,20.3c1.1,0.8,1.4,2.4,0.6,3.5C168.8,621.3,168.1,621.7,167.3,621.7z"/>
	</g>
	<g id="XMLID_21_">
		<path id="XMLID_196_" class="st8" d="M97,662.2c-0.1,0-0.3,0-0.4,0c-1.4-0.2-2.3-1.5-2.1-2.9c4.6-29.1,28.1-31.8,37.3-31.8
			c-1.2-5.8-0.5-11,2.1-15.4c5.5-9.2,17.5-11.5,18.1-11.6c1.4-0.3,2.7,0.7,2.9,2c0.2,1.4-0.7,2.7-2,2.9l0,0c-0.1,0-10.3,2-14.7,9.2
			c-2.4,4-2.6,8.9-0.7,14.7l1.2,3.8l-4-0.6c-1.2-0.2-30.4-3.8-35.3,27.4C99.3,661.3,98.2,662.2,97,662.2z"/>
	</g>
	<g id="XMLID_20_">
		<path id="XMLID_192_" class="st8" d="M314,662.2c-1.4,0-2.5-1.1-2.5-2.5c-0.4-20.4-16.7-24.4-17.4-24.6c-1.3-0.3-2.2-1.7-1.9-3
			c0.3-1.3,1.6-2.2,3-1.9c0.2,0,20.8,4.9,21.3,29.3C316.6,661,315.5,662.2,314,662.2C314.1,662.2,314,662.2,314,662.2z"/>
	</g>
	<g id="XMLID_19_">
		<path id="XMLID_191_" class="st8" d="M275.7,625.9c-1.3,0-2.6-0.1-3.9-0.4c-10.3-2.3-16.2-13-16.5-13.4c-0.7-1.2-0.2-2.7,1-3.4
			c1.2-0.7,2.7-0.2,3.4,1c0.1,0.2,5.2,9.2,13.2,10.9c4.1,0.9,8.4-0.2,12.9-3.4c1.1-0.8,2.7-0.6,3.5,0.6c0.8,1.1,0.6,2.7-0.6,3.5
			C284.3,624.4,280,625.9,275.7,625.9z"/>
	</g>
	<g id="XMLID_18_">
		<path id="XMLID_189_" class="st8" d="M257.7,638.3c-13.2,0-24.7-10.1-25.2-10.5c-1-0.9-1.1-2.5-0.2-3.5c0.9-1,2.5-1.1,3.5-0.2
			c0.2,0.2,12.5,10.9,24.7,9.1c5.9-0.9,11-4.6,15.1-11.1c0.7-1.2,2.3-1.5,3.5-0.8c1.2,0.7,1.5,2.3,0.8,3.5
			c-4.9,7.8-11.2,12.3-18.7,13.4C260.1,638.2,258.9,638.3,257.7,638.3z"/>
	</g>
	<g id="XMLID_13_">
		<path id="XMLID_188_" class="st8" d="M175.7,574.5c-0.6,0-1.2-0.4-1.4-1c-6-15.1,4.5-27.5,5-28c0.6-0.6,1.5-0.7,2.2-0.2
			c0.6,0.6,0.7,1.5,0.2,2.2c-0.1,0.1-9.7,11.6-4.5,24.9c0.3,0.8-0.1,1.7-0.9,2C176,574.5,175.8,574.5,175.7,574.5z"/>
	</g>
	<g id="XMLID_12_">
		<path id="XMLID_187_" class="st8" d="M183.7,534.5c-0.4,0-0.8-0.2-1.1-0.5c-0.3-0.4-3.3-4.1-1.1-13.5c0.2-0.8,1-1.3,1.8-1.1
			c0.8,0.2,1.3,1,1.1,1.8c-1.8,7.9,0.4,10.8,0.4,10.9c0.5,0.7,0.4,1.6-0.2,2.1C184.4,534.4,184,534.5,183.7,534.5z"/>
	</g>
	<g id="XMLID_11_">
		<path id="XMLID_186_" class="st8" d="M183.7,517.7c-0.2,0-0.3,0-0.5-0.1c-0.8-0.3-1.2-1.1-0.9-1.9l0.6-1.7
			c0.3-0.8,1.1-1.2,1.9-0.9c0.8,0.3,1.2,1.1,0.9,1.9l-0.6,1.7C184.9,517.3,184.3,517.7,183.7,517.7z"/>
	</g>
	<g id="XMLID_9_">
		<path id="XMLID_185_" class="st8" d="M303.2,661.2c-0.1,0-0.2,0-0.3,0c-0.8-0.2-1.3-1-1.2-1.8c2.5-11-8-18.3-8.1-18.3
			c-0.7-0.5-0.9-1.4-0.4-2.1c0.5-0.7,1.4-0.9,2.1-0.4c0.5,0.3,12.2,8.5,9.3,21.5C304.5,660.8,303.9,661.2,303.2,661.2z"/>
	</g>
	<g id="XMLID_8_">
		<path id="XMLID_184_" class="st8" d="M173.9,644.3c-0.8,0-1.5-0.6-1.5-1.5c0-0.2-0.7-23.3,27.9-27c-0.3-2.8-0.3-8.8,3.4-13.4
			c3.2-4,8.2-6.1,15.1-6.3c0.9,0,1.5,0.6,1.6,1.5c0,0.8-0.6,1.5-1.5,1.6c-5.9,0.1-10.2,1.9-12.8,5.1c-4.1,5.1-2.6,12.5-2.6,12.6
			l0.3,1.7l-1.7,0.2c-27.4,2.8-26.8,23.2-26.8,24.1C175.5,643.6,174.9,644.3,173.9,644.3C174,644.3,174,644.3,173.9,644.3z"/>
	</g>
</g>
<g id="Left_Leg">
	<polygon id="XMLID_134_" class="st9" points="373.8,410 395,404.4 405.3,404.6 408.2,410 406.8,414.6 388.1,433.7 373.8,444.7 
		363.8,444.1 357.7,436.1 353.9,426.1 362.7,424.3 369.2,417.5 	"/>
	<path id="XMLID_68_" class="st9" d="M361.7,352.6l-14.1-3.8h-22.4c0,0-19.9,7.3-20.9,7.3s-13.2,3.7-13.2,3.7l-15.1,9.1l-5.8,12.8
		L276,396l15.1,5.7l17.2-2.7l24.8-11.6l10.3-5.6l4.3,24.6l5.7,17.9l4.4,1.8l11-7l3.1-10.5l-4.2-34.4l-1.8-12.7l2.1-8.9H361.7z"/>
	<path id="XMLID_67_" class="st10" d="M365.1,421.8c0,0,27.7-15.2,38.3-3.7l4.4-6.2v-4.8l-7-2.7l-13.4,2l-10.4,3.8l-3.7,0.9
		l-1.7,5.3L365.1,421.8z"/>
	<path id="XMLID_66_" class="st10" d="M270.8,387.4c0,0,37.5-37.2,84.7-26.2c0,0,9.6,12.2,14.4,55l0.4-23.1l-3.2-22.3l0.2-9.4
		l-1-8.3l-18.7-4.4l-20.7,0.5l-19.3,4.4l-13.3,6l-16.1,7.9l-5.7,6.6l-2.3,7.5L270.8,387.4z"/>
	<path id="XMLID_65_" class="st11" d="M357.7,433.8c0,0,15.4-2.8,15.4-22.6l-8,10.6l-5.5,3.1l-5.7,1.2L357.7,433.8z"/>
	<polygon id="XMLID_64_" class="st11" points="363.8,444.1 407.7,407.1 406.8,414.6 399.9,422.5 375.7,444 373.8,444.7 	"/>
	<path id="XMLID_63_" class="st11" d="M270.8,387.4c0,0,35,13.5,72.4-9.9l-8,9.9l-13.2,7.4l-23,6.8h-10.4l-9.3-4.8L270.8,387.4z"/>
	<g id="XMLID_48_">
		<path id="XMLID_135_" class="st8" d="M356.8,428.5c-1.2,0-2.5-0.2-3.7-0.6l-1-0.4l-0.4-1c-0.4-0.9-8.5-21.1-10.4-41.8
			c-8.3,6.2-29,20.1-48.4,18.6c-9-0.7-16.6-4.7-22.6-11.7l-0.1-0.2c-0.1-0.2-3.5-4.9-1.8-11.7c1.8-7.3,8.4-14,19.7-19.9l0.1,0
			c2-0.9,48.4-22.6,78.8-8.7l1.4,0.6v12.5c1.1,5.5,8.5,44.6,4.3,53.9l-0.2,0.4C372,418.9,365.3,428.5,356.8,428.5z M355.6,423.6
			c5.9,1,11.7-6.4,12.6-7.7c2.5-6.5-1.6-34.6-4.8-51.1l0-0.5v-9.6c-28.2-11.6-71.8,8.5-73.3,9.2c-9.9,5.1-15.8,10.9-17.2,16.7
			c-1,4.3,0.7,7.3,1,7.7c5.1,6,11.6,9.3,19.2,9.9c22.5,1.8,48.3-20.1,48.6-20.3l3.8-3.2l0.2,5C346.5,398.6,353.8,418.7,355.6,423.6z
			"/>
	</g>
	<g id="XMLID_47_">
		<path id="XMLID_99_" class="st8" d="M370,447.2c-3.3,0-6.3-0.9-8.9-2.7c-8.2-5.6-9.6-18.1-9.7-18.6c-0.1-1.3,0.8-2.5,2.1-2.7
			c1.3-0.1,2.5,0.8,2.7,2.1l0,0c0,0.1,1.2,10.8,7.6,15.1c2.7,1.9,6,2.3,9.9,1.4l29.4-25.4c1.7-2.8,3.4-7.4,2-9.1
			c-1-1.2-6.3-4.1-32.7,7.4c-1.2,0.5-2.6,0-3.2-1.3c-0.5-1.2,0-2.6,1.3-3.2c21.7-9.5,33.9-11.4,38.4-6.1c4.4,5.2-1.2,14.1-1.8,15.1
			l-0.2,0.3l-0.3,0.2L376,446.3l-0.5,0.1C373.6,446.9,371.7,447.2,370,447.2z"/>
	</g>
</g>
<g id="Rocket">
	<polygon id="XMLID_150_" class="st12" points="241.7,452.5 253.2,434.5 287.9,403.8 322,378.3 359.8,355.6 373.8,348 394.6,356.7 
		418.3,373.9 433.9,395 443.4,422.8 423.9,454.8 393.6,493.7 371.4,519.1 338.8,547.8 317.5,553.9 294.4,552.4 265.9,538.7 
		253,527.9 240.1,504.9 234.9,482.9 235,470.5 	"/>
	<polygon id="XMLID_149_" class="st13" points="373.8,345.7 401,333.2 429.3,322.5 449.1,317 469.7,314.3 478.2,314.3 480.5,322 
		475.9,348 459.2,393.1 444.8,420.2 431,389.3 418.3,373.9 401.9,360.6 386.9,353.1 	"/>
	<polygon id="XMLID_148_" class="st13" points="357.6,533.4 375.8,514.4 403.1,483.7 412.1,470 423.9,470 431,472.2 435.1,483.7 
		429,514.4 416.5,535.2 400.1,553.9 370.9,580.5 369.7,574.6 369.7,553.9 364.8,542.9 359.8,537.9 	"/>
	<polygon id="XMLID_146_" class="st13" points="304,456.4 289.2,457.6 274.8,464.7 263.9,479.4 263.3,497 267.6,509.9 277.8,521.8 
		289.4,525.6 303.2,526.7 319.2,519.2 331.6,504.9 332.7,483.9 325.1,466.5 309.3,458.1 	"/>
	<polygon id="XMLID_145_" class="st14" points="287.4,466.5 277.8,472.2 271.9,481.4 269.9,493.5 271.9,504.9 280.4,514.4 
		289.4,518.1 297.5,519.1 310,516.1 319.9,507.6 324.8,496.5 325.1,485.4 318,472.1 309.2,466.5 298,464.1 	"/>
	<polygon id="XMLID_144_" class="st14" points="388.5,389.3 381.9,390.8 375,397.3 375,409.6 381.7,418.5 393.6,418.5 401.9,409.6 
		403.1,400.1 400.1,393.1 	"/>
	<path id="XMLID_117_" class="st15" d="M369.7,553.9l0.9,13.2l-2.4,13.3l10.9-7.5c0,0,26.6-24.3,28-25.2s15.1-20.8,15.1-20.8
		l9.2-18.6l3.2-13.7l-0.8-17.8C433.9,476.9,417.7,530.6,369.7,553.9z"/>
	<path id="XMLID_116_" class="st15" d="M362.6,540.7c0,0,35.6-32.5,49.5-70.7l-25.5,32.3l-17.8,19.5l-13,13.5L362.6,540.7z"/>
	<path id="XMLID_115_" class="st16" d="M403.1,362.8c0,0,32.3-31.2,76-33l1.4-7.8l-7.5-7.7l-19.6,2.1l-48.5,13.7L373.8,348l13.1,5.1
		L403.1,362.8z"/>
	<path id="XMLID_114_" class="st15" d="M434.6,396.4c0,0,23.8-14.1,42.1-50.8l-8.9,27.6l-10.2,23.1l-12.7,23.8l-5.4-12.2
		L434.6,396.4z"/>
	<polygon id="XMLID_113_" class="st17" points="284.7,466.5 287.2,517.1 297.5,519.1 294.7,463.9 	"/>
	<polygon id="XMLID_112_" class="st17" points="310.5,468.9 314,513.7 322.1,505.3 324.9,494.7 325.1,485.4 319.9,475.4 	"/>
	<polygon id="XMLID_111_" class="st17" points="386.6,389.3 391.8,417.7 401.4,412.7 403.1,400.1 398.4,392.5 	"/>
	<path id="XMLID_110_" class="st18" d="M238.4,494.7c0,0,10.6-40.7,28.3-47.2c0,0,26.2,3.2,43.8-13c0,0,8.1,18.1,21.6,22.6
		l-5.7-20.8l-4.3-21.8l-3.7-33.7l-41.9,31.3l-18.5,17.5C258.1,429.7,225.6,453,238.4,494.7z"/>
	<path id="XMLID_109_" class="st18" d="M265.9,538.7c0,0,45.9,24.4,107.9-53.2c0,0,53.4-61.4,60.8-89.1l7.7,18.2l1,8.2l-24,37.8
		l-25.7,36.2l-31.9,32.5l-16.5,14.6l-23.5,10h-25.2l-16.7-7.4L265.9,538.7z"/>
	<path id="XMLID_108_" class="st16" d="M407.7,476.7c0,0,33.9-7.8,8.9,58.5l12.5-20.8l6.1-25.4l-1.3-12.1l-6.7-7.1l-9.8,0.2
		L407.7,476.7z"/>
	<g id="XMLID_56_">
		<path id="XMLID_222_" class="st8" d="M360.7,513.7c-0.4,0-0.8-0.1-1.1-0.4c-0.6-0.6-0.6-1.6,0-2.2c0.4-0.4,39.1-40.5,65.6-83.1
			c0.4-0.7,1.4-0.9,2.1-0.5s0.9,1.4,0.5,2.1c-26.6,42.8-65.6,83.2-66,83.6C361.5,513.5,361.1,513.7,360.7,513.7z"/>
	</g>
	<g id="XMLID_55_">
		<path id="XMLID_221_" class="st8" d="M429.3,425.6c-0.3,0-0.6-0.1-0.8-0.2c-0.7-0.5-0.9-1.4-0.5-2.1l3.5-5.6
			c0.5-0.7,1.4-0.9,2.1-0.5c0.7,0.5,0.9,1.4,0.5,2.1l-3.5,5.6C430.3,425.3,429.8,425.6,429.3,425.6z"/>
	</g>
	<g id="XMLID_54_">
		<path id="XMLID_220_" class="st8" d="M369.9,556.4c-0.6,0-1.1-0.3-1.4-0.9c-0.4-0.8,0-1.7,0.7-2c0.4-0.2,43.8-20.8,63.1-77.1
			c0.3-0.8,1.1-1.2,1.9-0.9c0.8,0.3,1.2,1.1,0.9,1.9c-19.7,57.6-64.3,78.7-64.7,78.9C370.4,556.4,370.2,556.4,369.9,556.4z"/>
	</g>
	<g id="XMLID_53_">
		<path id="XMLID_219_" class="st8" d="M393.6,348.2c-0.5,0-1.1-0.3-1.3-0.8c-0.4-0.7-0.1-1.7,0.6-2.1c0.2-0.1,24.1-13.4,46.1-18.9
			c0.8-0.2,1.6,0.3,1.9,1.1c0.2,0.8-0.3,1.6-1.1,1.9c-21.6,5.4-45.2,18.5-45.4,18.6C394.1,348.1,393.9,348.2,393.6,348.2z"/>
	</g>
	<g id="XMLID_52_">
		<path id="XMLID_218_" class="st8" d="M445.1,327.8c-0.7,0-1.3-0.5-1.5-1.2c-0.2-0.8,0.4-1.6,1.2-1.8l8-1.7
			c0.8-0.2,1.6,0.4,1.8,1.2c0.2,0.8-0.4,1.6-1.2,1.8l-8,1.7C445.3,327.8,445.2,327.8,445.1,327.8z"/>
	</g>
	<g id="XMLID_51_">
		<path id="XMLID_215_" class="st8" d="M297.5,520.7c-16.1,0-29.1-13.1-29.1-29.1s13.1-29.1,29.1-29.1s29.1,13.1,29.1,29.1
			S313.6,520.7,297.5,520.7z M297.5,465.4c-14.4,0-26.1,11.7-26.1,26.1s11.7,26.1,26.1,26.1c14.4,0,26.1-11.7,26.1-26.1
			S311.9,465.4,297.5,465.4z"/>
	</g>
	<g id="XMLID_50_">
		<path id="XMLID_214_" class="st8" d="M297.5,520.7c-0.8,0-1.5-0.6-1.5-1.4l-3-55.1c0-0.8,0.6-1.6,1.4-1.6c0.8,0,1.6,0.6,1.6,1.4
			l3,55.1C299.1,519.9,298.4,520.6,297.5,520.7C297.6,520.7,297.5,520.7,297.5,520.7z"/>
	</g>
	<g id="XMLID_49_">
		<path id="XMLID_213_" class="st8" d="M303.2,510.2c-0.8,0-1.5-0.6-1.5-1.4l-2.3-38.1c-0.1-0.8,0.6-1.6,1.4-1.6
			c0.9-0.1,1.6,0.6,1.6,1.4l2.3,38.1C304.8,509.4,304.1,510.1,303.2,510.2C303.2,510.2,303.2,510.2,303.2,510.2z"/>
	</g>
	<g id="XMLID_2_">
		<polygon id="XMLID_147_" class="st19" points="232.5,466.5 202.3,466.5 182.9,471.9 166.8,480.2 152.5,494.7 169.7,497.8 
			187.8,504.9 203.3,517.5 211.6,534.3 212.7,551.5 208.4,574.6 207.1,580.5 218.9,577.1 236.2,574.6 251,575.8 266.8,583.4 
			275.9,593 283,606.1 289.6,636.4 300.8,627 310.5,614.2 317.1,595 319.2,556.2 300.8,553.9 273.7,544 257.5,530.5 242.1,508.4 
			234.9,482.9 		"/>
		<path id="XMLID_122_" class="st20" d="M221.2,466.6c0,0-11.1,99.2,97.3,102l-1-14.7h-16.7l-25.1-9.2l-12.4-8.8l-15.7-19.5
			l-8.1-17.1l-5.8-24.8l0.9-6.6L221.2,466.6z"/>
		<path id="XMLID_121_" class="st12" d="M152.5,494.7c0,0,43.4-29.8,82.4-11.8l-0.3-15l-13.5-1.3
			C221.2,466.6,182.7,459.1,152.5,494.7z"/>
		<path id="XMLID_120_" class="st20" d="M298,559.9c0,0,17.8,29.2-8.4,76.5l11.2-9.4l13.2-16.1l8-31.1l-2.3-17.7"/>
		<path id="XMLID_119_" class="st12" d="M212.6,507.8c0,0,27.1,39.7-6.3,70.8c0,0,33.3-62.7-36.7-80.8
			C169.7,497.8,200.6,489.7,212.6,507.8z"/>
		<path id="XMLID_118_" class="st20" d="M208.6,580.3c0,0,27.1-29.5,63.2-11.6c0,0,31.5,20.9,16.3,58.8l-7.2-25.3l-11-18.7
			l-15.1-8.9h-13.1L208.6,580.3z"/>
		<g id="XMLID_238_">
			<g id="XMLID_62_">
				<g id="XMLID_208_">
					<path id="XMLID_6_" class="st8" d="M311.6,557.2c-25.1,0-45.9-15.8-53.5-22.4c-5.3,4.3-7.2,5-8.8,3.3c-1.6-1.6-0.9-3.5,3.6-8.7
						c-10-12.3-41.7-57.9,1-99.2c26.9-26,64.1-54.2,99.6-75.2c30.7-18.2,75.8-40.5,115.8-43.2c0.9-0.1,7.1-0.7,10.8,3.1
						c2.4,2.5,3.2,6,2.4,10.5c-4,39.9-27.7,84.2-46.9,114.3c-22.2,34.8-51.5,71.1-78.4,97.1C341.8,552,326,557.2,311.6,557.2z
						 M258.9,528.9l0.9,0.9c7.6,7,27.4,22.8,51.4,22.8c13.4,0,28.1-4.9,42.7-19.1c44.2-42.7,116.8-137.2,123.8-208.5l0-0.2
						c0.5-3,0.2-5.1-1.1-6.4c-1.8-1.9-5.5-1.9-6.8-1.7l-0.2,0c-71.5,4.7-168.3,74.3-212.4,117c-40.8,39.5-9.8,82.1,0.6,94.2
						L258.9,528.9z"/>
				</g>
			</g>
			<g id="XMLID_61_">
				<g id="XMLID_207_">
					<path id="XMLID_7_" class="st8" d="M443.4,425.2c-1.1,0-2.2-0.8-2.4-2c-4.8-25.9-18.1-46-39.4-59.8c-16-10.3-30.9-13-31-13.1
						c-1.3-0.2-2.2-1.5-2-2.8c0.2-1.3,1.5-2.2,2.8-2c0.6,0.1,15.8,2.8,32.6,13.7c15.6,10,35.4,29,41.7,63.1c0.2,1.3-0.6,2.6-1.9,2.8
						C443.6,425.2,443.5,425.2,443.4,425.2z"/>
				</g>
			</g>
			<g id="XMLID_60_">
				<g id="XMLID_206_">
					<path id="XMLID_10_" class="st8" d="M287.3,640.7l-0.1-4.3c0-0.4-1.2-36.8-23.8-52.5c-12.8-8.9-30.2-9.5-51.7-2
						c-1.1,0.4-4.7,1.9-6.9-0.4c-2.1-2.2-0.8-5.9-0.3-7.1c8.2-21.2,8-38.6-0.4-51.7c-15-23.2-51.4-25.5-51.8-25.6l-4.3-0.2l2.4-3.5
						c11-16,29.1-25.8,52.5-28.5c17.5-2,31.6,0.6,32.2,0.8c1.3,0.3,2.2,1.5,1.9,2.8c-0.3,1.3-1.5,2.2-2.8,1.9
						c-0.5-0.1-51.7-9.4-77.4,22.4c10.7,1.4,38,6.8,51.2,27.3c9.3,14.5,9.6,33.3,0.8,56.1l0,0.1c-0.2,0.5-0.4,1.1-0.5,1.6
						c0.3-0.1,0.8-0.2,1.6-0.5c23.1-8.1,42-7.2,56.1,2.6c20,13.9,24.6,41.3,25.6,52c32.7-24.6,25-76.1,24.9-76.6
						c-0.2-1.3,0.7-2.6,2-2.8c1.3-0.2,2.6,0.7,2.8,2c0.1,0.6,2.3,14.8-0.3,32.2c-3.4,23.3-13.9,41.1-30.2,51.6L287.3,640.7z"/>
				</g>
			</g>
			<g id="XMLID_59_">
				<g id="XMLID_203_">
					<path id="XMLID_14_" class="st8" d="M297.5,528.8c-0.2,0-0.4,0-0.6,0c-10-0.2-19.3-4.2-26.2-11.4
						c-14.3-14.8-13.9-38.5,0.9-52.8c14.8-14.3,38.5-13.9,52.8,0.9c14.3,14.8,13.9,38.5-0.9,52.8
						C316.5,525.1,307.3,528.8,297.5,528.8z M297.5,458.6c-8.6,0-16.7,3.3-22.9,9.3c-13.1,12.6-13.4,33.5-0.8,46.6
						c6.1,6.3,14.3,9.9,23.1,10c8.8,0.1,17.1-3.2,23.5-9.3c6.3-6.1,9.9-14.3,10-23.1c0.1-8.8-3.2-17.1-9.3-23.5
						c-6.1-6.3-14.3-9.9-23.1-10C297.9,458.6,297.7,458.6,297.5,458.6z"/>
				</g>
			</g>
			<g id="XMLID_58_">
				<g id="XMLID_199_">
					<path id="XMLID_15_" class="st8" d="M388.5,420.7c-4.4,0-8.8-1.7-12.1-5.1c-3.1-3.2-4.8-7.5-4.7-12c0.1-4.5,1.9-8.7,5.1-11.8
						c3.2-3.1,7.5-4.8,12-4.7c4.5,0.1,8.7,1.9,11.8,5.1c3.1,3.2,4.8,7.5,4.7,12c-0.1,4.5-1.9,8.7-5.1,11.8
						C396.9,419.1,392.7,420.7,388.5,420.7z M388.5,391.4c-3.2,0-6.3,1.2-8.6,3.5c-4.9,4.8-5.1,12.7-0.3,17.6
						c4.8,4.9,12.7,5.1,17.6,0.3c2.4-2.3,3.7-5.4,3.8-8.7c0.1-3.3-1.2-6.5-3.5-8.9c-2.3-2.4-5.4-3.7-8.7-3.8
						C388.6,391.4,388.5,391.4,388.5,391.4z"/>
				</g>
			</g>
			<g id="XMLID_57_">
				<g id="XMLID_198_">
					<path id="XMLID_16_" class="st8" d="M364.2,585.8l1.9-6c0.1-0.3,10-31.5-11.5-42.6c-1.1-0.6-1.5-1.9-0.9-2.9
						c0.6-1.1,1.9-1.5,2.9-0.9c18.6,9.6,17,31.5,15.1,42c13.9-10.2,54.2-42.6,60.2-77.6c2.3-13.1,1-21.8-3.5-24.9
						c-5.2-3.6-14.4,0.3-17.5,2.1c-1,0.6-2.4,0.3-3-0.8c-0.6-1-0.3-2.4,0.8-3c0.6-0.3,13.7-7.8,22.2-1.9c6.1,4.3,7.9,14.1,5.3,29.2
						c-7.5,43.9-64.4,82.2-66.8,83.8L364.2,585.8z"/>
				</g>
			</g>
		</g>
		<g id="XMLID_17_">
			<path id="XMLID_223_" class="st8" d="M297.5,615.7c-0.3,0-0.6-0.1-0.9-0.3c-0.7-0.5-0.8-1.5-0.3-2.1c12.2-16,12.7-50.9,12.7-51.2
				c0-0.8,0.7-1.5,1.5-1.5c0,0,0,0,0,0c0.8,0,1.5,0.7,1.5,1.5c0,1.5-0.5,36.2-13.3,53C298.4,615.5,298,615.7,297.5,615.7z"/>
		</g>
		<g id="XMLID_3_">
			<path id="XMLID_212_" class="st8" d="M221.2,529.4c-0.7,0-1.3-0.5-1.5-1.2c-8.6-38.4-44.1-37.7-45.6-37.7
				c-0.8,0.1-1.5-0.6-1.6-1.5c0-0.8,0.6-1.5,1.5-1.6c0.4,0,39.5-0.8,48.7,40.1c0.2,0.8-0.3,1.6-1.2,1.8
				C221.4,529.4,221.3,529.4,221.2,529.4z"/>
		</g>
		<g id="XMLID_4_">
			<path id="XMLID_211_" class="st8" d="M221.7,545.9c-0.1,0-0.1,0-0.2,0c-0.8-0.1-1.5-0.8-1.4-1.7c0.6-5.9-0.3-11-0.3-11
				c-0.1-0.8,0.4-1.6,1.2-1.8c0.8-0.1,1.6,0.4,1.8,1.2c0,0.2,0.9,5.5,0.3,11.8C223.1,545.3,222.4,545.9,221.7,545.9z"/>
		</g>
	</g>
</g>
<g id="Stars">
	<g id="XMLID_224_">
		<polygon id="XMLID_140_" class="st21" points="392.6,270.9 386.9,273.1 384.2,279.3 385.9,284.4 392.6,287.8 397.2,287.8 
			400.6,281.9 399.7,274.9 		"/>
		<path id="XMLID_107_" class="st22" d="M384.2,279.3c0,0,12.5-4.7,16.4,2.6l-2.7-8.1l-5.3-3l-5.6,2.2L384.2,279.3z"/>
		<g id="XMLID_32_">
			<path id="XMLID_255_" class="st8" d="M392.6,290.2c-6,0-10.8-4.9-10.8-10.8c0-6,4.9-10.8,10.8-10.8s10.8,4.9,10.8,10.8
				C403.4,285.3,398.6,290.2,392.6,290.2z M392.6,273.3c-3.3,0-6,2.7-6,6s2.7,6,6,6s6-2.7,6-6S395.9,273.3,392.6,273.3z"/>
		</g>
	</g>
	<g id="XMLID_258_">
		<polygon id="XMLID_141_" class="st21" points="502.3,552.7 494.9,555.1 493.5,562.1 496.7,567.2 502.3,567.2 507.9,564.3 
			509.6,559.8 		"/>
		<path id="XMLID_106_" class="st22" d="M493.5,554.9c0,0,10.3-0.7,12,9.6l2-2.4l-1.6-7.2l-5.5-2.4L493.5,554.9z"/>
		<g id="XMLID_31_">
			<path id="XMLID_259_" class="st8" d="M500.5,569.6c-5.4,0-9.8-4.4-9.8-9.8s4.4-9.8,9.8-9.8s9.8,4.4,9.8,9.8
				S505.9,569.6,500.5,569.6z M500.5,554.9c-2.7,0-4.9,2.2-4.9,4.9c0,2.7,2.2,4.9,4.9,4.9s4.9-2.2,4.9-4.9
				C505.5,557.1,503.2,554.9,500.5,554.9z"/>
		</g>
	</g>
	<g id="XMLID_265_">
		<polygon id="XMLID_142_" class="st21" points="124.5,561.3 119.4,554.3 114.9,554.3 109.8,557.8 109.8,561.3 112.7,567.2 
			119.5,568.3 122.9,565.9 		"/>
		<path id="XMLID_105_" class="st22" d="M109.8,557.8c0,0,11.5,1,13.1,8.1l1.6-4.6l-5.1-7l-5.9,0.6L109.8,557.8z"/>
		<g id="XMLID_30_">
			<path id="XMLID_262_" class="st8" d="M117.1,571.1c-5.4,0-9.8-4.4-9.8-9.8s4.4-9.8,9.8-9.8c5.4,0,9.8,4.4,9.8,9.8
				S122.5,571.1,117.1,571.1z M117.1,556.4c-2.7,0-4.9,2.2-4.9,4.9s2.2,4.9,4.9,4.9s4.9-2.2,4.9-4.9S119.9,556.4,117.1,556.4z"/>
		</g>
	</g>
</g>
<g id="Star">
	<polygon id="XMLID_139_" class="st21" points="416.5,155.4 417.2,165.2 420.9,176.6 411.2,176.6 395.1,181.4 398.2,188.8 
		408,196.7 414.9,198.6 421.5,197.9 422.4,207.8 426,219.8 433.2,229.4 439.4,224.4 447.6,209.2 447.6,198.6 456.8,201.8 
		471.4,200.6 478.2,197.9 473.3,188.8 463.3,180.8 457.8,178.1 458.4,169.1 453.9,149.4 450.3,149.4 443.4,155.8 439.7,166.1 
		431.7,159.8 	"/>
	<path id="XMLID_104_" class="st22" d="M417,162.7c0,0,16,1,23,8l-0.3-4.7l-5.7-6.7c0,0-9.4-1.7-10.3-1.9c-0.9-0.3-6.7,0-6.7,0
		V162.7z"/>
	<path id="XMLID_103_" class="st22" d="M445.7,153.7c0,0,8.7,7.7,10.1,25.1l2.3-14.7l-3.6-16.3L445.7,153.7z"/>
	<path id="XMLID_102_" class="st22" d="M447.6,198.6c0,0,19.1-1.2,20.8-13.7l7.8,9.3l0.4,4.4l-10.4,2.4L447.6,198.6z"/>
	<path id="XMLID_101_" class="st22" d="M424.6,218c0,0,19.2-5.4,23-21.4v14l-7,12.3l-7.5,6.5l-6-7.2L424.6,218z"/>
	<path id="XMLID_100_" class="st22" d="M400.6,192.9c0,0,6.6-11.8,24-14.1l-7.6-2.2h-5.8l-10.2,2.2l-7.4,3.6L400.6,192.9z"/>
	<g id="XMLID_29_">
		<path id="XMLID_228_" class="st8" d="M433.9,232.9l-1.4-1c-10.8-7.8-12.9-24.1-13.3-30.9c-16.5,2.5-27.2-16.5-27.6-17.4l-1-1.9
			l1.7-1.2c7.6-5.4,19.3-5.6,25.5-5.3c-4.9-12.3-3.7-18.4-3.5-19.2l0.4-1.8l1.8-0.1c10.5-0.5,17.6,3.7,21.4,7.1
			c3.1-10,13.7-15.3,14.2-15.6l2.2-1l1.1,2.1c6.6,13.2,5.8,25.3,5.1,30.1c16.9,6.7,20.1,20,20.2,20.6l0.4,1.8l-1.6,0.9
			c-11.1,5.9-22.5,3.8-28,2.2c-1.5,18.5-15.4,29.1-16.1,29.5L433.9,232.9z M424,194.6l0,3.3c0,0.2-0.2,19.8,9.9,28.8
			c3.6-3.3,12.9-13.2,12.9-27.8v-3.7l3.4,1.5c0.1,0.1,12.9,5.4,25.2,0c-1.4-3.6-6-11.8-18.4-16l-2.1-0.7l0.5-2.1
			c0-0.1,2.9-12.5-3.2-26.6c-3.5,2.3-10,7.5-10.2,15.2l-0.2,7.4l-4.2-6.1c-0.3-0.4-6.1-8.6-18.6-8.8c0,2.8,0.8,8.7,4.9,18l1.8,4
			l-4.3-0.6c-0.2,0-15-2-24.2,2.9c3.2,4.7,12.2,16,23.8,12.5L424,194.6z"/>
	</g>
</g>
<g id="Ground">
	<g id="XMLID_24_">
		<path id="XMLID_183_" class="st8" d="M532,662.2H330.1c-1.4,0-2.5-1.1-2.5-2.5s1.1-2.5,2.5-2.5H532c1.4,0,2.5,1.1,2.5,2.5
			S533.4,662.2,532,662.2z"/>
	</g>
	<g id="XMLID_23_">
		<path id="XMLID_182_" class="st8" d="M322.1,662.2H76.6c-1.4,0-2.5-1.1-2.5-2.5s1.1-2.5,2.5-2.5h245.5c1.4,0,2.5,1.1,2.5,2.5
			S323.4,662.2,322.1,662.2z"/>
	</g>
	<g id="XMLID_5_">
		<path id="XMLID_181_" class="st8" d="M68.6,662.2H64c-1.4,0-2.5-1.1-2.5-2.5s1.1-2.5,2.5-2.5h4.5c1.4,0,2.5,1.1,2.5,2.5
			S69.9,662.2,68.6,662.2z"/>
	</g>
	<g id="XMLID_25_">
		<path id="XMLID_26_" class="st8" d="M559.5,662.2h-19.6c-1.4,0-2.5-1.1-2.5-2.5s1.1-2.5,2.5-2.5h19.6c1.4,0,2.5,1.1,2.5,2.5
			S560.9,662.2,559.5,662.2z"/>
	</g>
</g>
<g id="Hair">
	<polygon id="XMLID_201_" class="st21" points="341.5,257 334.9,235.8 320.3,217.9 314.4,196.2 315.4,177.5 315.2,164.8 
		309.9,150.5 301.1,143.7 279.3,139 258.2,141.7 230,154.3 219.3,149.9 203.9,146.4 176.8,151.9 151.4,171.2 124.2,214.8 
		110.6,239.1 86.9,269.9 76,278 68.1,282.1 53.5,284.5 55.6,296.4 64.1,310.6 82.9,316.2 97,331.3 114.6,339.1 144.8,334.3 
		154.7,331.5 167.9,337.3 185.5,340.4 200.6,338.9 217.6,328.8 225.3,322.6 232.3,316.3 245.3,318.1 280.4,320.5 315.2,305.9 
		332.1,287.8 339.7,270.5 	"/>
	<path id="XMLID_81_" class="st23" d="M329.9,290.2c0,0-4.8-44.2-43.2-104l-49.7-17.6l-2,10.2L221.7,201l-24.8,16l-20.9,1.9
		l-13.3,20.8l2.9,33.7C153.1,329.6,97,331.3,97,331.3l22.2,9.1l37.5-9.1l20.1,7.5l26.4-1.6l22-14.7l8.1-8.3l34,8.3l-0.6-2.4
		l22.6-1.4C289.5,318.8,317.1,313.3,329.9,290.2z"/>
	<path id="XMLID_92_" class="st23" d="M237,171.6c0,0-19.7,47.8-66.2,38.6c0,0-4.8,31.8-28.5,37.2l18.4-1.8l11.1-9l8.2-14.4
		l21.4-4.1l20.6-13l7.3-9.9l8-19.6L237,171.6z"/>
	<path id="XMLID_91_" class="st23" d="M126.2,281.4c0,0-31.3,39.1-59,30.1l-11.5-15.1C55.6,296.4,81,311.1,126.2,281.4z"/>
	<path id="XMLID_90_" class="st23" d="M301.4,180.9c0,0-47.4,2.6-68-18.2C233.4,162.8,252.4,203.8,301.4,180.9z"/>
	<path id="XMLID_89_" class="st24" d="M319.3,237.3c-18.6-22.6-5.6-57.5-5.6-57.5l3.1,23l3.5,15.1l12.7,15.5l5.7,11.9l2.9,11.7
		l-1.8,13.5C339.7,270.5,338,259.9,319.3,237.3z"/>
	<path id="XMLID_88_" class="st24" d="M229.7,156.7c0,0-45.4-18.1-79.7,34.5s-22.4,41.2-22.4,41.2s-41.2,81.8-74.1,52l12-1.4
		l23.2-16.8l17.2-21.2l28.3-49.4l25.5-30.9l15.8-10.5l19.1-7.6l24.6,3.2L229.7,156.7z"/>
	<path id="XMLID_82_" class="st24" d="M314,181.7c0,0-1.5-53.2-84.2-25l7.2-7.3l25.3-8.7l13.7-1.7l9.4,0.5l12.4,2.9l8.9,3.3l4.7,8.6
		l3.8,10.4L314,181.7z"/>
	<g id="XMLID_80_">
		<path id="XMLID_293_" class="st8" d="M122.9,341.6c-1.1,0-2.2,0-3.3-0.1c-15.5-1.1-29.3-10-41.1-26.6c-0.9-1.2-0.6-3,0.6-3.8
			c1.2-0.9,3-0.6,3.8,0.6c10.8,15.1,23.2,23.3,37,24.3c24.6,1.8,45.5-19.9,45.7-20.1c1.1-1.1,2.8-1.1,3.9-0.1c1.1,1,1.1,2.8,0.1,3.9
			C168.9,320.6,148.5,341.6,122.9,341.6z"/>
	</g>
	<g id="XMLID_36_">
		<path id="XMLID_292_" class="st8" d="M204.4,208.8c-0.7,0-1.3-0.4-1.6-1c-0.5-0.9-0.1-2,0.8-2.4c15.4-7.8,22.1-30.1,22.1-30.3
			c0.3-1,1.3-1.5,2.3-1.2c1,0.3,1.5,1.3,1.2,2.3c-0.3,1-7.2,24-24,32.5C205,208.7,204.7,208.8,204.4,208.8z"/>
	</g>
	<g id="XMLID_34_">
		<path id="XMLID_291_" class="st8" d="M187.8,214c-1.8,0-3.7-0.2-5.7-0.8c-1-0.3-1.5-1.3-1.2-2.2c0.3-1,1.3-1.5,2.2-1.2
			c6.9,2,12.9-1.2,12.9-1.2c0.9-0.5,2-0.2,2.5,0.7c0.5,0.9,0.2,2-0.7,2.5C197.6,211.8,193.4,214,187.8,214z"/>
	</g>
	<g id="XMLID_33_">
		<path id="XMLID_290_" class="st8" d="M304.7,162.3c-0.6,0-1.1-0.3-1.5-0.8l0,0c-0.6-0.8-14.6-19.4-49.2-6.1c-0.9,0.4-2-0.1-2.4-1
			c-0.4-0.9,0.1-2,1-2.4c37.4-14.4,52.9,6.4,53.5,7.3c0.6,0.8,0.4,2-0.4,2.5C305.4,162.2,305.1,162.3,304.7,162.3z"/>
	</g>
	<g id="XMLID_27_">
		<path id="XMLID_289_" class="st8" d="M328.1,275.4c-0.3,0-0.6-0.1-0.9-0.2c-0.9-0.5-1.2-1.6-0.7-2.5l0,0
			c0.3-0.5,7.2-13.3-2.9-28.5c-0.6-0.8-0.3-2,0.5-2.5c0.8-0.6,2-0.3,2.5,0.5c11.4,17.1,3.4,31.7,3,32.3
			C329.3,275.1,328.7,275.4,328.1,275.4z"/>
	</g>
	<g id="XMLID_28_">
		<path id="XMLID_288_" class="st8" d="M120.4,330.6c-7.9,0-15.8-2.8-22.1-10.8c-0.6-0.8-0.5-1.9,0.3-2.6c0.8-0.6,1.9-0.5,2.6,0.3
			c17.6,22.5,50.7-2.4,51-2.7c0.8-0.6,1.9-0.5,2.5,0.3c0.6,0.8,0.5,1.9-0.3,2.5C154.1,317.9,137.3,330.6,120.4,330.6z"/>
	</g>
	<g id="XMLID_35_">
		<path id="XMLID_286_" class="st8" d="M71.2,292.2c-0.4,0-0.8,0-1.1,0c-1-0.1-1.8-0.9-1.7-1.9c0.1-1,0.9-1.8,1.9-1.7
			c0.3,0,0.6,0,1,0c30.3,0,60.1-71.6,60.4-72.3c0.4-0.9,1.4-1.4,2.4-1c0.9,0.4,1.4,1.4,1,2.4C133.7,220.7,104,292.2,71.2,292.2z"/>
	</g>
	<g id="XMLID_287_">
		<path id="XMLID_94_" class="st8" d="M184.7,343c-2.7,0-5.3-0.2-7.7-0.6c-15.4-2.3-25.2-10.8-25.6-11.1c-1.1-1-1.3-2.7-0.3-3.9
			c1-1.1,2.7-1.3,3.9-0.3l0,0c0.1,0.1,9.2,7.8,23.1,9.9c18.5,2.7,36.4-5.5,53.2-24.6l1.3-1.5l1.8,0.8c0.3,0.1,33,13.8,62.9,1.6
			c17-7,30-21,38.6-41.6c2.6-6.3,6.8-23.1-10.8-42.1c-18.7-20.2-13.2-48.7-12.7-51.1c0.2-1.5,3.2-26.1-12.4-32.2
			c-14.4-5.7-35.2-9.6-68.7,10.4l-1.4,0.8l-1.4-0.9c-0.1-0.1-10.3-6-24.6-6.4c-19.1-0.5-36.3,8.7-51.1,27.3
			c-17.1,21.5-26,37.7-33.8,52c-9.2,16.8-16.5,30.1-33.2,45l-0.1,0.1c-1.9,1.5-17.2,13.2-29.2,13c0.7,5.4,3,16.2,10.8,20.8
			c6.9,4.1,16.8,2.8,29.6-3.8c1.4-0.7,3-0.2,3.7,1.2c0.7,1.3,0.2,3-1.2,3.7c-14.5,7.6-26.3,8.8-34.9,3.6
			c-13.3-7.9-13.8-27.9-13.8-28.7l-0.1-3.7l3.5,1c8.1,2.2,22.9-7.5,28-11.5c15.9-14.2,23-27.1,32-43.4c7.9-14.5,16.9-30.9,34.3-52.8
			c20-25.1,41.4-29.9,55.9-29.4c12.6,0.4,22,4.6,25.5,6.4c27.1-15.9,49.5-18.9,72.2-10c20.1,7.9,16,37,15.8,38.2l0,0.2
			c-0.1,0.3-5.8,27.8,11.3,46.2c20.3,22,14.2,42.3,11.8,48c-9.2,22.1-23.2,37.1-41.7,44.6c-28.2,11.5-57.6,2-65.3-0.9
			C215.8,337.8,198.1,343,184.7,343z"/>
	</g>
</g>
<g id="Left_Arm">
	<polygon id="XMLID_87_" class="st25" points="362.6,229.4 354.6,230.9 351.9,233.1 347.5,242.7 347.5,259.3 355.1,267.8 
		360.7,270.9 375,255.8 383.1,242.7 386.9,235 384.2,227.2 379.3,224.7 367.2,227.2 	"/>
	<path id="XMLID_277_" class="st26" d="M289.4,317l11.2,2l19.3-6.7l16.6-10.2l18-17.6l-7.8-4.9l-7.6-10.5l-6.5,5.3l-20.2,9.5
		l-14.5,0.3l-11.9-1.3l-9,2.8l-8.8,2.9c0,0-4.9,6.4,2.7,19.4C271.1,308,275.5,314.6,289.4,317z"/>
	<polygon id="XMLID_85_" class="st27" points="347.5,263.3 340.5,267.8 344,276.5 354.6,284.4 360.7,273.9 360.7,270.9 	"/>
	<path id="XMLID_86_" class="st28" d="M294.5,317h7.5l23.9-5.6l14.6-12.5l14-14.4l-7.8-4.9c-21.3,30.4-77.7,24.6-77.7,24.6
		S275,317,294.5,317"/>
	<path id="XMLID_83_" class="st29" d="M336.6,271.3c0,0-21.9,36.2-50.8,22.3l-10.4-9.1l14.1-1.2l13.8,2.4l9.2-1.8l12.6-4.7
		L336.6,271.3z"/>
	<g id="XMLID_40_">
		<path id="XMLID_282_" class="st8" d="M300.2,319.4c-2.3,0-4.6-0.2-6.9-0.6c-1.3-0.2-2.2-1.5-1.9-2.8c0.2-1.3,1.5-2.2,2.8-1.9
			c17.5,3.2,35-8.8,43.9-16.3c12.3-10.3,19.5-20.8,20.9-24.6c-5.3-1-9.4-5.7-11.6-8.9c-6.1,6.8-23.8,24.2-44.4,22.6
			c-22.5-1.7-30.6,2.9-30.7,3c-1.1,0.7-2.6,0.3-3.3-0.8c-0.7-1.1-0.4-2.6,0.8-3.3c0.4-0.2,9.2-5.6,33.6-3.7
			c22.3,1.7,42.2-23.1,42.4-23.4l2.3-2.9l1.7,3.3c1.4,2.6,6,9.3,11,9.5c1.3,0.1,2.4,0.8,2.9,1.9c0.4,0.9,1.8,3.8-6.4,14.3
			C346.9,298.3,324,319.4,300.2,319.4z"/>
	</g>
	<g id="XMLID_39_">
		<path id="XMLID_281_" class="st8" d="M360.7,273.3c-0.6,0-1.2-0.2-1.7-0.7c-1-0.9-1-2.5,0-3.4c10.7-11,27.1-31.2,25.6-38.9
			c-0.4-1.9-1.3-2.6-2-2.8c-3.8-1.7-12.2,1.8-16.6,4.4l-1,0.6l-1.1-0.4c-0.3-0.1-6.9-2.5-11.6,4.3c-5.3,7.6-2.2,23.1-2.2,23.2
			c0.3,1.3-0.6,2.6-1.9,2.9c-1.3,0.3-2.6-0.6-2.9-1.9c-0.1-0.7-3.5-17.7,3-27c5-7.2,12.2-7.5,16.2-6.4c3.3-1.8,13.7-7,20-4.2
			c1.7,0.8,4,2.5,4.8,6.3c2.6,12.6-23.8,40.1-26.8,43.2C362,273.1,361.4,273.3,360.7,273.3z"/>
	</g>
	<g id="XMLID_37_">
		<path id="XMLID_280_" class="st8" d="M354.5,286c-0.2,0-0.4,0-0.6-0.1c-14.5-6.2-14.9-17.6-14.9-18c0-0.8,0.6-1.5,1.5-1.6
			c0.8,0,1.5,0.6,1.6,1.5l0,0c0,0.4,0.5,10,13.1,15.3c0.8,0.3,1.1,1.2,0.8,2C355.7,285.6,355.1,286,354.5,286z"/>
	</g>
	<g id="XMLID_38_">
		<path id="XMLID_279_" class="st8" d="M364.8,250.2c-0.8,0-1.5-0.6-1.5-1.4c-0.4-4.9-4.4-8.6-4.5-8.6l-0.9-0.8l5.5-10.2
			c0.4-0.7,1.3-1,2.1-0.6c0.7,0.4,1,1.3,0.6,2.1l-4.4,8.2c1.4,1.6,4.2,5.2,4.6,9.8c0.1,0.8-0.6,1.6-1.4,1.6
			C364.8,250.2,364.8,250.2,364.8,250.2z"/>
	</g>
</g>
<g id="Body">
	<polygon id="XMLID_151_" class="st29" points="246.3,292.9 237.9,296.9 230.3,305.3 230.4,314 233.4,337.3 232.8,350.7 
		230.3,367.8 232.8,401.8 241.7,418.5 251,425.1 257.4,424.5 269.9,417.5 284.2,403.8 296,377.3 299.6,343.5 292.8,312.4 
		287.1,296.2 279.9,288.6 270.4,288.9 	"/>
	<path id="XMLID_75_" class="st26" d="M237.9,296.9l-7.6,8.4l0.4,11.7l2.6,20.3l-1.5,19.4l-0.3,28.7l3.3,20.3l6.8,12.8l9.3,6.6
		l22-10.5l-16.6-10.3c0,0-14.9-6.8-6.7-67.9C249.6,336.4,255.7,296.8,237.9,296.9z"/>
	<path id="XMLID_69_" class="st30" d="M272.9,414.6c0,0,20.5-46.9,16.5-106.6l6.6,18.9l2,31.9l-3.3,24.1l-9.2,20.5L272.9,414.6z"/>
	<g id="XMLID_46_">
		<path id="XMLID_274_" class="st8" d="M253.9,428.4l-0.6-0.1c-33.1-6.9-23.1-81.5-22.5-85.5c0.7-8.3-0.5-14.3-1.5-19.7
			c-1.2-6.1-2.3-11.8-0.2-18.9c3-10.2,17.2-12.8,29.8-15.1c5.2-0.9,10-1.8,13.7-3.1c3.6-1.2,7.2-0.7,10.3,1.5
			c10.6,7.4,16.6,33.4,17,73c0.3,27.9-12.1,44.8-22.5,54.1c-11.3,10-22.5,13.5-23,13.6L253.9,428.4z M276.4,290.2
			c-0.7,0-1.4,0.1-2.2,0.4c-4.1,1.4-9.1,2.3-14.5,3.3c-11.2,2-23.9,4.3-26.1,11.7c-1.7,6-0.8,10.7,0.3,16.6
			c1.1,5.7,2.3,12.1,1.6,21.1l0,0.1c-0.1,0.7-10,73.1,18.1,80c2.4-0.8,11.6-4.4,20.7-12.5c14-12.5,20.9-29.4,20.7-50.3
			c-0.4-36.9-6-62.8-15-69.1C278.9,290.6,277.7,290.2,276.4,290.2z"/>
	</g>
	<g id="XMLID_41_">
		<path id="XMLID_268_" class="st8" d="M275.4,330.4c-0.8,0-1.4-0.6-1.5-1.3c-3.3-24.8-9.1-31.7-9.1-31.8c-0.5-0.6-0.5-1.6,0.2-2.1
			c0.6-0.6,1.6-0.5,2.1,0.1c0.3,0.3,6.4,7.4,9.9,33.4c0.1,0.8-0.5,1.6-1.3,1.7C275.5,330.4,275.5,330.4,275.4,330.4z"/>
	</g>
	<circle id="XMLID_42_" class="st8" cx="263.5" cy="310.8" r="2.8"/>
</g>
<g id="Left_Leg_1_">
	<polygon id="XMLID_310_" class="st9" points="352.7,442.8 373.8,437.3 384.2,437.4 387.1,442.8 385.6,447.5 366.9,466.5 
		352.7,477.6 342.6,476.9 336.6,468.9 332.7,458.9 341.6,457.1 348,450.4 	"/>
	<path id="XMLID_309_" class="st9" d="M340.5,385.4l-14.1-3.8H304c0,0-19.9,7.3-20.9,7.3s-13.2,3.7-13.2,3.7l-15.1,9.1l-5.8,12.8
		l5.8,14.2l15.1,5.7l17.2-2.7l24.8-11.6l10.3-5.6l4.3,24.6l5.7,17.9l4.4,1.8l11-7l3.1-10.5l-4.2-34.4l-1.8-12.7l2.1-8.9H340.5z"/>
	<path id="XMLID_307_" class="st10" d="M343.9,454.7c0,0,27.7-15.2,38.3-3.7l4.4-6.2V440l-7-2.7l-13.4,2l-10.4,3.8l-3.7,0.9
		l-1.7,5.3L343.9,454.7z"/>
	<path id="XMLID_305_" class="st10" d="M249.6,420.2c0,0,37.5-37.2,84.7-26.2c0,0,9.6,12.2,14.4,55l0.4-23.1l-3.2-22.3l0.2-9.4
		l-1-8.3l-18.7-4.4l-20.7,0.5l-19.3,4.4l-13.3,6l-16.1,7.9l-5.7,6.6l-2.3,7.5L249.6,420.2z"/>
	<path id="XMLID_303_" class="st11" d="M336.6,466.6c0,0,15.4-2.8,15.4-22.6l-8,10.6l-5.5,3.1l-5.7,1.2L336.6,466.6z"/>
	<polygon id="XMLID_301_" class="st11" points="342.6,476.9 386.6,440 385.6,447.5 378.7,455.3 354.6,476.8 352.7,477.6 	"/>
	<path id="XMLID_300_" class="st11" d="M249.6,420.2c0,0,35,13.5,72.4-9.9l-8,9.9l-13.2,7.4l-23,6.8h-10.4l-9.3-4.8L249.6,420.2z"/>
	<g id="XMLID_295_">
		<path id="XMLID_296_" class="st8" d="M335.6,461.4c-1.2,0-2.5-0.2-3.7-0.6l-1-0.4l-0.4-1c-0.4-0.9-8.5-21.1-10.4-41.8
			c-8.3,6.2-29,20.1-48.4,18.6c-9-0.7-16.6-4.7-22.6-11.7l-0.1-0.2c-0.1-0.2-3.5-4.9-1.8-11.7c1.8-7.3,8.4-14,19.7-19.9l0.1,0
			c2-0.9,48.4-22.6,78.8-8.7l1.4,0.6V397c1.1,5.5,8.5,44.6,4.3,53.9l-0.2,0.4C350.9,451.8,344.1,461.4,335.6,461.4z M334.5,456.4
			c5.9,1,11.7-6.4,12.6-7.7c2.5-6.5-1.6-34.6-4.8-51.1l0-0.5v-9.6c-28.2-11.6-71.8,8.5-73.3,9.2c-9.9,5.1-15.8,10.9-17.2,16.7
			c-1,4.3,0.7,7.3,1,7.7c5.1,6,11.6,9.3,19.2,9.9c22.5,1.8,48.3-20.1,48.6-20.3l3.8-3.2l0.2,5C325.4,431.4,332.6,451.6,334.5,456.4z
			"/>
	</g>
	<g id="XMLID_93_">
		<path id="XMLID_294_" class="st8" d="M348.8,480c-3.3,0-6.3-0.9-8.9-2.7c-8.2-5.6-9.6-18.1-9.7-18.6c-0.1-1.3,0.8-2.5,2.1-2.7
			c1.3-0.1,2.5,0.8,2.7,2.1l0,0c0,0.1,1.2,10.8,7.6,15.1c2.7,1.9,6,2.3,9.9,1.4l29.4-25.4c1.7-2.8,3.4-7.4,2-9.1
			c-1-1.2-6.3-4.1-32.7,7.4c-1.2,0.5-2.6,0-3.2-1.3c-0.5-1.2,0-2.6,1.3-3.2c21.7-9.5,33.9-11.4,38.4-6.1c4.4,5.2-1.2,14.1-1.8,15.1
			l-0.2,0.3l-0.3,0.2l-30.5,26.4l-0.5,0.1C352.4,479.8,350.6,480,348.8,480z"/>
	</g>
</g>
<g id="Neck">
	<polygon id="XMLID_136_" class="st31" points="244.4,278.2 249,293.5 254.8,298 265.5,298 269.9,291 269,279.3 263.9,270.9 	"/>
	<path id="XMLID_96_" class="st32" d="M248,285.6c0,0,17.6,2.6,20.3-7.8l-3.4-7.5l-20.6,7.8L248,285.6z"/>
	<g id="XMLID_44_">
		<path id="XMLID_278_" class="st8" d="M260.5,300.4c-6.6,0-12.7-4.7-13-5l-1-0.8l0.1-1.3c0.6-8.6-3.5-10.6-3.7-10.7
			c-1.2-0.5-1.8-1.9-1.3-3.1c0.5-1.2,1.9-1.8,3.2-1.3c0.3,0.1,6.9,2.9,6.7,14.1c2.5,1.7,7.4,4.1,11.3,2.9c2.6-0.9,4.6-3.4,5.9-7.7
			c-0.2-1.9-1.5-9.6-6.5-15c-0.9-1-0.8-2.5,0.1-3.4c1-0.9,2.5-0.8,3.4,0.1c6.8,7.4,7.7,17.8,7.8,18.3l0,0.4l-0.1,0.4
			c-1.7,6.1-4.8,10-9.2,11.4C263,300.2,261.7,300.4,260.5,300.4z"/>
	</g>
</g>
<g id="Right_Arm">
	<g id="XMLID_74_">
		<polygon class="st25" points="257.5,339.8 249,343.2 244.4,348 246.3,353.9 252.4,366.6 257.4,369.1 269.9,364.1 281.4,353.9 
			284.7,343.5 283.4,339.8 277.8,337.3 263.9,341.7 		"/>
	</g>
	<g id="XMLID_73_">
		<polygon class="st26" points="230.7,303.3 213.8,317 197.8,337.3 186.8,355.6 181.8,371 184.7,381.6 189.3,386.9 198.8,390.8 
			220.1,387.2 241,379 237.9,375.7 232.8,361.9 234.2,356.7 221.9,359.9 230.3,350.7 237.9,337.3 240.1,321.8 237.9,308 
			234.2,302.4 		"/>
	</g>
	<g id="XMLID_72_">
		<polygon class="st27" points="245.5,355.6 234.2,356.7 234.6,366.4 241,379 252.4,371.6 		"/>
	</g>
	<g id="XMLID_71_">
		<path class="st28" d="M182.9,379c0,0,30.1,5.1,53.6-8.8l4.5,8.8l-14.9,6.4l-18.3,3.9l-16.9,0.7l-4.1-4.6L182.9,379z"/>
	</g>
	<g id="XMLID_70_">
		<path class="st29" d="M182.9,375.3c0,0,27.5-48.3,56.4-58.3l-2.9-11.1l-3.7-4.5C232.8,301.3,183.3,340.6,182.9,375.3z"/>
	</g>
	<g id="XMLID_43_">
		<path id="XMLID_271_" class="st8" d="M202.2,392.4c-5.6,0-10.8-1-14.7-3.9c-5.2-3.7-7.4-9.8-6.8-18.1c2.6-33.3,49.1-69.5,51-71
			l1.4-1.1l1.4,1c0.8,0.5,7.7,5.9,6.2,27.1c-0.9,12.6-6.8,22.7-11.5,29c10.3-2.8,16.9-2.2,17.4-2.2l1.7,0.2l0.4,1.7
			c1.8,7.2,7.7,12.1,7.7,12.2l1.9,1.5l-1.5,1.9c-0.3,0.3-6.4,7.5-19.5,13.2C233,385.7,216.3,392.4,202.2,392.4z M232.8,304.7
			c-8.6,7-45.3,38.5-47.4,66.1c-0.5,6.6,1.1,11.2,4.8,13.8c9.8,7,32.9,0,45-5.2c8.5-3.6,13.7-7.9,16.1-10.2c-2-2.1-5.2-6-6.9-11.2
			c-4.7,0-19.4,1.2-37.5,12.6c-1.1,0.7-2.6,0.4-3.3-0.8s-0.4-2.6,0.8-3.3c5.6-3.5,10.9-6.2,15.7-8.1c2.2-2.1,14.5-14.8,15.8-32.4
			C236.8,313.1,234.4,307.1,232.8,304.7z"/>
	</g>
	<g id="XMLID_45_">
		<path id="XMLID_270_" class="st8" d="M254.8,371.5c-0.9,0-1.8-0.6-2.2-1.5c-0.5-1.2,0.1-2.6,1.3-3.2c1.6-0.7,3.3-0.9,5-1.2
			c5-0.7,11.1-1.5,20.6-16.3c3.1-4.8,3.1-7,2.7-7.5c-1.5-1.8-10.3-0.3-17.3,2.4l-3.1,1.2l-0.1-2.9c-0.1-0.1-0.2-0.3-0.5-0.4
			c-0.8-0.3-3.1-0.7-8.8,2c-3.1,1.5-4.9,3.2-5.4,5.1c-0.6,2.5,1.3,4.8,1.3,4.8c0.8,1,0.7,2.6-0.3,3.4c-1,0.8-2.5,0.7-3.4-0.3
			c-0.1-0.2-3.4-4.1-2.3-8.9c0.8-3.5,3.5-6.3,8-8.5c5.8-2.7,10.2-3.4,13.2-1.9c0.6,0.3,1.2,0.7,1.6,1.2c5.5-1.9,16.9-5.1,20.9-0.2
			c3.4,4.2-0.9,11-2.3,13.2c-10.7,16.6-18.4,17.7-24,18.5c-1.5,0.2-2.7,0.4-3.8,0.8C255.5,371.5,255.1,371.5,254.8,371.5z"/>
	</g>
	<g id="XMLID_76_">
		<path id="XMLID_269_" class="st8" d="M241.7,380.5c-0.4,0-0.7-0.1-1-0.4c-10.7-9.2-7.7-23.2-7.6-23.8c0.2-0.8,1-1.3,1.8-1.2
			c0.8,0.2,1.3,1,1.2,1.8c0,0.2-2.7,12.9,6.6,20.8c0.6,0.5,0.7,1.5,0.2,2.2C242.5,380.3,242.1,380.5,241.7,380.5z"/>
	</g>
</g>
<g id="Head">
	<g id="XMLID_77_">
		<polygon id="XMLID_195_" class="st31" points="291.6,187.8 309.6,236 309.3,248.1 298.4,257.6 259.4,272.1 208.6,291.2 
			194.5,294.9 192.6,294.2 184,289 166.1,245.2 174,233.6 180.1,222.3 201.5,218.2 224.6,205 239.2,175.6 256.4,184.6 281.7,184.8 
					"/>
		<polygon id="XMLID_194_" class="st31" points="177,273.1 167.5,274.7 157.6,268 155.9,261 158.2,251.3 166.1,245.2 		"/>
		<path id="XMLID_193_" class="st32" d="M304.3,226.7c0,0,4.2,15-8.4,20.6c-12.7,5.5-92.7,34.6-92.7,34.6s-17.2,4.2-23.8-4.4
			L184,289l12.8,5.7l11.9-3.5l94.2-35.6l4.1-3.6l3.4-7.7l0.2-5.3L304.3,226.7z"/>
		<path id="XMLID_190_" class="st32" d="M245.4,179.6c0,0-9.3,42.2-58.1,50.2c0,0-3.8,14.4-15.9,22l-5.6-9.9l14.3-19.6l19.9-1.7
			l19.7-12.7l12.7-18.5l5-13.6L245.4,179.6z"/>
		<path id="XMLID_138_" class="st32" d="M293.4,192.7c0,0-31.5,6.9-58.6-6.8l4.4-10.3l14.4,8.4l20.9,3.5l13.3-0.8L293.4,192.7z"/>
		<path id="XMLID_137_" class="st33" d="M267.6,225.2c0,0-2.8-8.8-10.9-14.9l5.8,23.3l3.7-3.1L267.6,225.2z"/>
		
			<ellipse id="XMLID_98_" transform="matrix(-0.976 0.2179 -0.2179 -0.976 496.7528 419.5652)" class="st33" cx="225.2" cy="237.2" rx="6.3" ry="3.3"/>
		
			<ellipse id="XMLID_97_" transform="matrix(-0.9603 0.2788 -0.2788 -0.9603 622.9595 347.6783)" class="st33" cx="286.8" cy="218.1" rx="6.3" ry="3.3"/>
		<path id="XMLID_95_" class="st32" d="M265.6,252.4c0,0-33.5,22.9-48.6-5.1l7.7,4.2l17.7,3.1l15.2-1.4L265.6,252.4z"/>
		<g id="XMLID_79_">
			<path id="XMLID_285_" class="st8" d="M145.2,251c-1,0-2,0-3.1-0.1c-1.5-0.1-2.7-1.4-2.6-2.9c0.1-1.5,1.4-2.7,2.9-2.6
				c26.5,1.8,34.6-22.9,34.9-24l0.6-1.9l2,0c42.5-0.2,56.4-44.2,56.5-44.7l1.1-3.6l3.1,2.2c31.1,21.9,57.5,6.7,57.7,6.6
				c1.3-0.8,3-0.3,3.8,1c0.8,1.3,0.3,3-1,3.8c-1.2,0.7-28.1,16.2-60.8-4.8c-1.8,4.4-5.5,12.5-11.9,20.7
				C216.6,216,200.5,224.4,182,225C179.4,231.3,169.3,251,145.2,251z"/>
		</g>
		<g id="XMLID_78_">
			<path id="XMLID_284_" class="st8" d="M170.7,277.1c-2.7,0-5.4-0.6-7.9-1.9c-4.2-2.1-7.4-5.8-8.9-10.3c-1.5-4.5-1.1-9.3,1-13.5
				c2.1-4.2,5.8-7.4,10.3-8.9c1.4-0.5,3,0.3,3.5,1.7c0.5,1.4-0.3,3-1.7,3.5c-3.1,1-5.6,3.2-7.1,6.1c-1.5,2.9-1.7,6.2-0.7,9.3
				c2.1,6.4,9,9.9,15.4,7.7c1.4-0.5,3,0.3,3.5,1.7c0.5,1.4-0.3,3-1.7,3.5C174.5,276.8,172.6,277.1,170.7,277.1z"/>
		</g>
		<g id="XMLID_84_">
			<path id="XMLID_283_" class="st8" d="M162.2,262.9c-0.1,0-0.1,0-0.2,0c-1-0.1-1.7-1-1.6-2c0.7-6.9,8-9.7,8.3-9.8
				c0.9-0.3,2,0.1,2.3,1.1c0.3,0.9-0.1,2-1.1,2.3c-0.1,0-5.5,2.1-6,6.7C163.9,262.2,163.2,262.9,162.2,262.9z"/>
		</g>
	</g>
	<g id="XMLID_133_">
		<path id="XMLID_311_" class="st8" d="M196.4,297.4c-2.7,0-5.4-0.6-7.9-1.7c-4.6-2.1-8.2-5.9-10-10.7l-15.7-42
			c-0.5-1.4,0.2-3,1.6-3.5c1.4-0.5,3,0.2,3.5,1.6l15.7,42c1.3,3.4,3.8,6.1,7.1,7.6c3.3,1.5,7,1.6,10.4,0.4l98-36.6
			c3.4-1.3,6.1-3.8,7.6-7.1c1.5-3.3,1.6-7,0.4-10.4l-18.7-50.1c-0.5-1.4,0.2-3,1.6-3.5c1.4-0.5,3,0.2,3.5,1.6l18.7,50.1
			c1.8,4.8,1.6,10-0.5,14.6c-2.1,4.6-5.9,8.2-10.7,10l-98,36.6C200.9,297,198.6,297.4,196.4,297.4z"/>
	</g>
</g>
<g id="Face">
	<g id="XMLID_312_">
		<circle class="st8" cx="276.6" cy="208.3" r="6"/>
	</g>
	<g id="XMLID_313_">
		<circle class="st8" cx="229.1" cy="223.8" r="6"/>
	</g>
	<g id="XMLID_314_">
		<path id="XMLID_315_" class="st8" d="M260.9,236.9c-3.7,0-7.3-2.5-8.8-6.4c-0.5-1.4,0.2-3,1.6-3.5c1.4-0.5,3,0.2,3.5,1.6
			c0.8,2.1,2.8,3.3,4.5,2.7c0.8-0.3,1.4-0.9,1.7-1.8c0.4-1,0.4-2.1,0-3.2c-0.5-1.4,0.2-3,1.6-3.5c1.4-0.5,3,0.2,3.5,1.6
			c0.9,2.3,0.9,4.9,0,7.1c-0.9,2.4-2.7,4.1-4.9,4.9C262.8,236.8,261.9,236.9,260.9,236.9z"/>
	</g>
	<g id="XMLID_316_">
		<path id="XMLID_317_" class="st8" d="M239.9,257.4c-8.6,0-17.3-2-22.7-8.6c-1-1.2-0.8-2.9,0.4-3.9c1.2-1,2.9-0.8,3.9,0.4
			c10.6,13.2,41.3,2.6,41.6,2.5c1.4-0.5,3,0.3,3.5,1.7c0.5,1.4-0.3,3-1.7,3.5C264.2,253.3,252.3,257.4,239.9,257.4z"/>
	</g>
</g>
</svg>
